<?xml version="1.0" encoding="UTF-8" standalone="no"?>
<svg
   width="135.46666mm"
   height="135.46666mm"
   viewBox="0 0 135.46666 135.46666"
   version="1.1"
   id="svg1"
   sodipodi:docname="cuneiform.svg"
   inkscape:version="1.4.2 (1:1.4.2+202505120737+ebf0e940d0)"
   inkscape:export-filename="cuneiform.svg"
   inkscape:export-xdpi="96"
   inkscape:export-ydpi="96"
   xmlns:inkscape="http://www.inkscape.org/namespaces/inkscape"
   xmlns:sodipodi="http://sodipodi.sourceforge.net/DTD/sodipodi-0.dtd"
   xmlns="http://www.w3.org/2000/svg"
   xmlns:svg="http://www.w3.org/2000/svg">
  <defs
     id="defs1" />
  <sodipodi:namedview
     id="namedview1"
     pagecolor="#ffffff"
     bordercolor="#000000"
     borderopacity="0.25"
     inkscape:showpageshadow="2"
     inkscape:pageopacity="0.0"
     inkscape:pagecheckerboard="0"
     inkscape:deskcolor="#d1d1d1"
     inkscape:document-units="mm"
     inkscape:zoom="3.6777346"
     inkscape:cx="256.13594"
     inkscape:cy="255.99999"
     inkscape:window-width="2202"
     inkscape:window-height="2079"
     inkscape:window-x="26"
     inkscape:window-y="23"
     inkscape:window-maximized="0"
     inkscape:current-layer="svg1" />
  <path
     style="fill:#000000;stroke:#ffffff;stroke-width:1;stroke-opacity:1;stroke-dasharray:none"
     d="M 135.56109,133.9104 H 0.42997655 M 18.367736,22.899909 v 8.810358 H 61.41836 c 6.507458,0 14.254119,-1.141289 20.628424,0.111263 6.467504,1.27089 13.028215,5.651194 19.133606,8.111734 -5.99503,2.790511 -12.972903,6.905012 -19.432576,8.361232 -6.163764,1.389512 -13.999893,0.155451 -20.329454,0.155451 H 18.367736 V 56.96663 H 61.11939 c 6.461854,0 14.315666,-1.204192 20.628424,0.114426 2.352564,0.491405 4.684677,1.911584 6.876145,2.863369 4.978223,2.162126 9.946898,4.35391 14.948131,6.4641 2.06887,0.872922 6.10423,3.644219 8.37095,2.925916 6.71875,-2.129127 5.68029,-7.294977 5.68029,-12.955172 v -33.47936 c 0,-5.502758 0.82511,-10.269731 -5.68029,-12.323401 -2.18292,-0.6891119 -6.06104,1.956648 -8.07199,2.801965 -6.963348,2.927092 -14.450722,7.703744 -21.824266,9.365985 -6.252758,1.409579 -14.207203,0.155451 -20.628424,0.155451 H 18.367736 M 108.65445,21.137837 V 33.472339 L 94.304246,27.305087 c 3.371746,-2.506703 10.189534,-5.438679 14.350204,-6.16725 m 0,25.256364 V 59.022376 C 104.22579,57.237561 97.992442,55.552067 94.304246,52.561451 l 14.350204,-6.16725 M 29.130392,79.579874 c 0,3.182196 0.52254,6.862855 -0.113265,9.985068 -1.138141,5.589091 -4.972991,11.523428 -7.319046,16.739678 -1.321474,2.93819 -2.682608,5.85866 -3.973245,8.81036 -0.483388,1.10549 -1.50649,2.57272 -1.265982,3.81783 0.289851,1.50051 2.560133,5.11664 4.029538,5.69636 1.632523,0.64408 4.209571,0.1772 5.951336,0.1772 h 13.45332 c 1.906205,0 5.021172,0.5867 6.77879,-0.1772 1.721449,-0.74817 3.27048,-4.07214 3.983866,-5.69636 l 4.282826,5.69636 5.881901,0.1772 H 74.87168 l 6.51443,-0.30183 3.650297,-5.27806 h 0.597929 c 0.509297,1.57001 2.072114,4.70174 3.684897,5.40269 1.757629,0.7639 4.872584,0.1772 6.778789,0.1772 h 13.453318 c 1.74175,0 4.31882,0.46688 5.95134,-0.1772 1.49629,-0.59033 3.4676,-3.93326 3.94833,-5.40269 0.4208,-1.28625 -0.5575,-2.67176 -1.05675,-3.81782 -1.28608,-2.95234 -2.62491,-5.88295 -3.96817,-8.81035 -2.417,-5.26748 -6.29915,-11.371374 -7.45214,-17.033368 -0.63581,-3.122213 -0.11328,-6.802872 -0.11328,-9.985068 h -8.968872 l -0.158247,10.572429 -4.234837,9.691393 -8.163348,18.208074 -8.329199,-18.208074 -4.427921,-10.278754 -0.0983,-9.985068 h -8.96888 L 63.328825,90.152303 50.954629,118.34545 H 50.65567 L 38.335,90.445978 38.099238,79.579874 h -8.96888 m 4.48444,22.319566 c 2.252565,4.15062 5.43917,9.76644 6.278216,14.39026 H 27.336616 c 0.410043,-3.93672 3.747732,-11.31342 6.278216,-14.39026 m 34.679662,0 5.979257,14.39026 H 61.717319 l 4.094126,-9.69139 2.483049,-4.69887 m 34.380716,0 c 1.77823,4.50245 5.47846,9.58236 5.97924,14.39026 H 96.098022 l 4.101518,-9.69139 z"
     id="path1"
     sodipodi:nodetypes="ccccsccssccsssssssssssccccccccccsssssssscccccccssssscssccccccccccccccccccccccccccccc" />
</svg>
